<svg width="340" height="180" viewBox="0 0 340 180" xmlns="http://www.w3.org/2000/svg">
  <rect x="1" y="1" width="338" height="178" rx="12" fill="#0d1117" stroke="#2d3341" stroke-width="1"/>

  <text x="24" y="38" font-family="Segoe UI, Verdana, sans-serif" font-size="20" font-weight="700" fill="#4a90e2">Stats</text>

  <g font-family="Segoe UI, Verdana, sans-serif" font-size="13" fill="#c9d1d9">
    <text x="24" y="68">⭐ Total Stars:</text>
    <text x="150" y="68" font-weight="600">12</text>

    <text x="24" y="92">⎇ Total Commits:</text>
    <text x="150" y="92" font-weight="600">245</text>

    <text x="24" y="116">⑂ Total PRs:</text>
    <text x="150" y="116" font-weight="600">9</text>

    <text x="24" y="140">! Total Issues:</text>
    <text x="150" y="140" font-weight="600">3</text>

    <text x="24" y="164">▤ Contributed to:</text>
    <text x="150" y="164" font-weight="600">14</text>
  </g>

  <!-- GitHub cat icon (simplified) -->
  <g transform="translate(255, 55)" fill="#5c6370" opacity="0.85">
    <circle cx="40" cy="40" r="40"/>
    <path d="M40 20c-14 0-24 9-24 22 0 10 6 16 12 19 1 0 1-1 1-2v-6c-7 1-8-4-8-4-1-3-3-4-3-4-3-1 0-1 0-1 3 0 5 3 5 3 3 4 7 3 9 2 0-2 1-3 2-4-6-1-12-3-12-13 0-3 1-5 3-7 0-1-1-3 0-6 0 0 2-1 7 2 4-1 8-1 12 0 5-3 7-2 7-2 1 3 0 5 0 6 2 2 3 4 3 7 0 10-6 12-12 13 1 1 2 2 2 5v8c0 1 0 2 1 2 6-3 12-9 12-19 0-13-10-22-24-22z" fill="#5c6370"/>
  </g>
</svg>
